<svg width="70" height="70" viewBox="0 0 70 70" fill="none" xmlns="http://www.w3.org/2000/svg">
<path d="M37.918 11.668V11.168V11.668ZM53.1494 13.6338L53.4272 13.2181V13.2181L53.1494 13.6338ZM56.3682 16.8525L56.7839 16.5748V16.5748L56.3682 16.8525ZM58.334 32.084H58.834H58.334ZM56.3682 47.3164L56.7839 47.5942L56.7839 47.5942L56.3682 47.3164ZM53.1494 50.5352L53.4272 50.9509L53.4272 50.9509L53.1494 50.5352ZM40.834 52.4961L40.8318 51.9961C40.5565 51.9973 40.334 52.2208 40.334 52.4961H40.834ZM40.834 52.501L41.2812 52.7246C41.3159 52.6551 41.334 52.5786 41.334 52.501H40.834ZM35.8955 62.3789L36.3427 62.6025L36.3427 62.6025L35.8955 62.3789ZM34.1064 62.3789L33.6592 62.6025L33.6592 62.6025L34.1064 62.3789ZM29.168 52.501H28.668C28.668 52.5786 28.686 52.6551 28.7207 52.7246L29.168 52.501ZM29.168 52.4961H29.668C29.668 52.2208 29.4454 51.9973 29.1701 51.9961L29.168 52.4961ZM16.8525 50.5352L16.5748 50.9509L16.5748 50.9509L16.8525 50.5352ZM13.6338 47.3164L13.2181 47.5942L13.2181 47.5942L13.6338 47.3164ZM11.668 32.084H11.168H11.668ZM13.6338 16.8525L13.2181 16.5748L13.2181 16.5748L13.6338 16.8525ZM16.8525 13.6338L16.5748 13.2181L16.5748 13.2181L16.8525 13.6338ZM32.084 11.668V11.168V11.668ZM37.918 11.668V12.168C42.0246 12.168 45.067 12.1685 47.4518 12.411C49.8283 12.6527 51.4962 13.1305 52.8716 14.0495L53.1494 13.6338L53.4272 13.2181C51.8601 12.1709 50.0085 11.6658 47.553 11.4161C45.1058 11.1673 42.0038 11.168 37.918 11.168V11.668ZM53.1494 13.6338L52.8716 14.0495C54.0909 14.8642 55.1377 15.9111 55.9524 17.1303L56.3682 16.8525L56.7839 16.5748C55.8963 15.2463 54.7556 14.1057 53.4272 13.2181L53.1494 13.6338ZM56.3682 16.8525L55.9524 17.1303C56.8715 18.5057 57.3493 20.1737 57.591 22.5501C57.8335 24.9349 57.834 27.9773 57.834 32.084H58.334H58.834C58.834 27.9982 58.8347 24.8961 58.5858 22.449C58.3361 19.9935 57.831 18.1419 56.7839 16.5748L56.3682 16.8525ZM58.334 32.084H57.834C57.834 36.1907 57.8335 39.2334 57.591 41.6184C57.3493 43.9951 56.8715 45.6632 55.9524 47.0386L56.3682 47.3164L56.7839 47.5942C57.8311 46.027 58.3361 44.1753 58.5858 41.7196C58.8347 39.2722 58.834 36.1699 58.834 32.084H58.334ZM56.3682 47.3164L55.9524 47.0386C55.1378 48.2578 54.0908 49.3048 52.8716 50.1194L53.1494 50.5352L53.4272 50.9509C54.7556 50.0633 55.8963 48.9225 56.7839 47.5942L56.3682 47.3164ZM53.1494 50.5352L52.8716 50.1194C51.67 50.9223 50.2449 51.3883 48.3194 51.6541C46.3858 51.9211 43.9809 51.9824 40.8318 51.9961L40.834 52.4961L40.8362 52.9961C43.9805 52.9824 46.448 52.922 48.4561 52.6447C50.4723 52.3664 52.0582 51.8656 53.4272 50.9509L53.1494 50.5352ZM40.834 52.4961H40.334V52.501H40.834H41.334V52.4961H40.834ZM40.834 52.501L40.3868 52.2774L35.4483 62.1553L35.8955 62.3789L36.3427 62.6025L41.2812 52.7246L40.834 52.501ZM35.8955 62.3789L35.4483 62.1553C35.264 62.5238 34.7379 62.5238 34.5536 62.1553L34.1064 62.3789L33.6592 62.6025C34.2121 63.708 35.7899 63.708 36.3427 62.6025L35.8955 62.3789ZM34.1064 62.3789L34.5537 62.1553L29.6152 52.2774L29.168 52.501L28.7207 52.7246L33.6592 62.6025L34.1064 62.3789ZM29.168 52.501H29.668V52.4961H29.168H28.668V52.501H29.168ZM29.168 52.4961L29.1701 51.9961C26.021 51.9824 23.6161 51.9211 21.6826 51.6541C19.7571 51.3883 18.3319 50.9223 17.1303 50.1194L16.8525 50.5352L16.5748 50.9509C17.9438 51.8656 19.5296 52.3664 21.5458 52.6447C23.554 52.922 26.0215 52.9824 29.1658 52.9961L29.168 52.4961ZM16.8525 50.5352L17.1303 50.1194C15.9111 49.3048 14.8642 48.2578 14.0495 47.0386L13.6338 47.3164L13.2181 47.5942C14.1057 48.9225 15.2464 50.0633 16.5748 50.9509L16.8525 50.5352ZM13.6338 47.3164L14.0495 47.0386C13.1305 45.6632 12.6527 43.9951 12.411 41.6184C12.1685 39.2334 12.168 36.1907 12.168 32.084H11.668H11.168C11.168 36.1699 11.1673 39.2722 11.4161 41.7196C11.6658 44.1753 12.1709 46.027 13.2181 47.5942L13.6338 47.3164ZM11.668 32.084H12.168C12.168 27.9773 12.1685 24.9349 12.411 22.5501C12.6527 20.1737 13.1305 18.5057 14.0495 17.1303L13.6338 16.8525L13.2181 16.5748C12.1709 18.1419 11.6658 19.9935 11.4161 22.449C11.1673 24.8961 11.168 27.9982 11.168 32.084H11.668ZM13.6338 16.8525L14.0495 17.1303C14.8642 15.9111 15.9111 14.8642 17.1303 14.0495L16.8525 13.6338L16.5748 13.2181C15.2463 14.1057 14.1057 15.2463 13.2181 16.5748L13.6338 16.8525ZM16.8525 13.6338L17.1303 14.0495C18.5057 13.1305 20.1737 12.6527 22.5501 12.411C24.9349 12.1685 27.9773 12.168 32.084 12.168V11.668V11.168C27.9982 11.168 24.8961 11.1673 22.449 11.4161C19.9935 11.6658 18.1419 12.1709 16.5748 13.2181L16.8525 13.6338ZM32.084 11.668V12.168H37.918V11.668V11.168H32.084V11.668Z" fill="#222222"/>
<circle cx="46.6667" cy="32.0827" r="2.91667" fill="#222222"/>
<circle cx="35.0007" cy="32.0827" r="2.91667" fill="#222222"/>
<circle cx="23.3327" cy="32.0827" r="2.91667" fill="#222222"/>
</svg>
